<?xml version="1.0" encoding="UTF-8"?>
<svg width="92px" height="87px" viewBox="0 0 92 87" version="1.1" xmlns="http://www.w3.org/2000/svg" xmlns:xlink="http://www.w3.org/1999/xlink">
    <!-- Generator: sketchtool 51.2 (57519) - http://www.bohemiancoding.com/sketch -->
    <title>2BA8175B-3F03-49B0-9745-EEB294B7099C</title>
    <desc>Created with sketchtool.</desc>
    <defs></defs>
    <g id="Desktop-/-Founder-Phase" stroke="none" stroke-width="1" fill="none" fill-rule="evenodd">
        <g id="Founder_marketing_page_A_1" transform="translate(-165.000000, 0.000000)">
            <g id="nav-/-global-/-web-desktop">
                <g id="nav">
                    <g id="logos-/-app-/-fn-vrt" transform="translate(165.000000, 0.000000)">
                        <g id="logo_square">
                            <rect id="bg" fill="#FFFFFF" x="0.00385478073" y="0" width="92" height="87"></rect>
                            <g id="logo" transform="translate(6.582681, 6.654636)">
                                <polyline id="Fill-1" fill="#263D76" points="0 38.5094857 0 6.0929795 20.2374549 6.0929795 20.8584961 14.9563025 9.53206068 14.9563025 9.53206068 19.1858296 18.7601796 19.1858296 18.7595217 28.0290873 9.45508842 28.0290873 9.45081218 38.5094857 0 38.5094857"></polyline>
                                <polyline id="Fill-2" fill="#263D76" points="78.9459094 38.4614603 68.8908321 21.6423632 77.9403359 6.14100493 67.5431596 6.14100493 63.6488237 12.875091 59.6229113 6.14100493 49.1997486 6.14100493 58.5156949 21.7512428 48.8520577 38.4614603 59.0768687 38.4525788 63.7277696 30.4856208 68.487879 38.4614603 78.9459094 38.4614603"></polyline>
                                <path d="M20.3881101,22.4831371 C20.3881101,13.4573171 27.8215253,6.14100493 36.9907637,6.14100493 C46.1603311,6.14100493 53.5930885,13.4573171 53.5930885,22.4831371 C53.5930885,31.5089572 46.1600022,38.8255983 36.9907637,38.8255983 C27.8215253,38.8255983 20.3881101,31.5089572 20.3881101,22.4831371 M39.8729473,29.1389352 L39.9328146,15.3605714 C39.9328146,13.788561 38.5374457,12.3816791 36.9404357,12.3816791 C35.3437547,12.3816791 34.0523312,13.788561 34.0523312,15.3605714 L34.0487129,29.0988043 C34.0487129,30.6708148 35.3434258,31.9451333 36.9401068,31.9451333 C38.5374457,31.9451333 39.8729473,30.7109456 39.8729473,29.1389352" id="Fill-3" fill="#263D76"></path>
                                <polyline id="Fill-4" fill="#263D76" points="0.175325707 46.7247944 3.93940088 46.7247944 10.8333524 55.5775913 10.8715096 55.5775913 10.8715096 46.7247944 14.6355848 46.7247944 14.6355848 61.204461 10.8715096 61.204461 3.97755807 52.3322565 3.93940088 52.3322565 3.93940088 61.204461 0.175325707 61.204461 0.175325707 46.7247944"></polyline>
                                <path d="M23.890348,51.1990538 L23.8518618,51.1990538 L22.2966274,55.8078502 L25.4265038,55.8078502 L23.890348,51.1990538 Z M21.2594755,58.6883891 L20.2608098,61.204461 L16.2664757,61.204461 L21.8354517,46.7247944 L25.9452442,46.7247944 L31.3990908,61.204461 L27.3853492,61.204461 L26.4445771,58.6883891 L21.2594755,58.6883891 Z" id="Fill-5" fill="#263D76"></path>
                                <polyline id="Fill-6" fill="#263D76" points="36.8897788 61.204461 33.1257036 61.204461 33.1257036 49.9125644 30.0149058 49.9125644 30.0149058 46.7247944 40.0005765 46.7247944 40.0005765 49.9125644 36.8897788 49.9125644 36.8897788 61.204461"></polyline>
                                <polygon id="Fill-7" fill="#263D76" points="41.8429767 61.204461 45.6067229 61.204461 45.6067229 46.7247944 41.8429767 46.7247944"></polygon>
                                <polyline id="Fill-8" fill="#263D76" points="64.4241383 46.7247944 68.1882135 46.7247944 75.0821651 55.5775913 75.1206512 55.5775913 75.1206512 46.7247944 78.8843974 46.7247944 78.8843974 61.204461 75.1206512 61.204461 68.2266996 52.3322565 68.1882135 52.3322565 68.1882135 61.204461 64.4241383 61.204461 64.4241383 46.7247944"></polyline>
                                <polygon id="Fill-9" fill="#BC2433" points="0 3.70322104 78.9459094 3.70322104 78.9459094 0.0437491915 0 0.0437491915"></polygon>
                                <polygon id="Fill-10" fill="#BC2433" points="0 44.6054257 78.9459094 44.6054257 78.9459094 40.9459538 0 40.9459538"></polygon>
                                <polygon id="Fill-11" fill="#BC2433" points="0 67.4306617 78.9459094 67.4306617 78.9459094 63.7708609 0 63.7708609"></polygon>
                                <polygon id="Fill-12" fill="#BC2433" points="0 73.6825199 78.9459094 73.6825199 78.9459094 70.023048 0 70.023048"></polygon>
                                <path d="M58.1719513,57.999586 L55.1443756,55.8844935 L52.1168,57.999586 L53.192767,54.4664276 L50.245453,52.2411398 L53.9384769,52.173049 L55.1443756,48.6816661 L56.3506033,52.173049 L60.0432982,52.2411398 L57.0959843,54.4664276 L58.1719513,57.999586 Z M55.0545747,46.2445401 C50.8872175,46.2445401 47.046499,49.3171807 47.046499,53.6957182 C47.046499,58.3814869 50.4072921,61.6843863 55.0545747,61.6843863 C59.7018572,61.6843863 63.0623214,58.3814869 63.0623214,53.6957182 C63.0623214,49.3171807 59.2219318,46.2445401 55.0545747,46.2445401 Z" id="Fill-13" fill="#263D76"></path>
                            </g>
                        </g>
                    </g>
                </g>
            </g>
        </g>
    </g>
</svg>
